<?xml version="1.0" encoding="utf-8"?>
<!-- Svg Vector Icons : http://www.onlinewebfonts.com/icon -->
<!DOCTYPE svg PUBLIC "-//W3C//DTD SVG 1.1//EN" "http://www.w3.org/Graphics/SVG/1.1/DTD/svg11.dtd">
<svg version="1.1" xmlns="http://www.w3.org/2000/svg" xmlns:xlink="http://www.w3.org/1999/xlink" x="10%" y="10%" viewBox="0 0 1000 1000" enable-background="new 0 0 1000 1000" xml:space="preserve">
<metadata> Svg Vector Icons : http://www.onlinewebfonts.com/icon </metadata>
<g><g transform="translate(0.000000,320.000000) scale(0.100000,-0.100000)"><path d="M5938.9,1241.3c-63.2-23-67-28.7-72.7-128.2c-5.7-93.8,0-109.1,53.6-164.6c57.4-59.3,59.3-65.1,53.6-212.5l-5.7-151.2h-363.7h-363.7l-5.7,80.4c-5.7,67-13.4,84.2-47.9,91.9c-23,5.7-222.1,7.7-444.1,5.7l-402-5.7l-9.6-86.1l-9.6-86.1l-1014.6-9.6c-1160.1-13.4-1162-13.4-1531.5-191.4C1352,180.7,1040-148.5,791.1-646.3c-298.6-593.5-442.2-1349.7-442.2-2324.1V-3292H257c-141.7,0-157-26.8-157-281.4c0-179.9,5.7-214.4,34.5-241.2c32.5-30.6,224-32.5,2350.9-32.5h2314.5l32.5-145.5c49.8-218.2,137.8-379,292.9-536c593.5-601.1,1596.6-344.6,1835.9,469c17.2,57.4,30.6,128.3,30.6,158.9v53.6h1407.1h1409l46,47.9c57.4,55.5,61.3,122.5,11.5,183.8c-30.6,36.4-57.4,45.9-172.3,51.7l-135.9,7.7v84.2c0,57.4,15.3,105.3,47.9,153.2c135.9,199.1-63.2,434.6-285.3,336.9c-141.7-63.2-183.8-231.6-88.1-354.2c24.9-32.5,38.3-78.5,38.3-135.9v-88.1h-172.3h-172.3v505.4c0,771.5-49.8,1242.4-183.8,1732.5c-153.1,555.2-369.5,968.7-675.8,1290.3c-191.4,199.1-336.9,306.3-566.7,417.4c-291,139.7-451.8,174.2-861.5,187.6l-344.6,11.5l-5.7,147.4c-5.7,139.7-1.9,149.3,53.6,212.5c47.9,55.5,57.4,82.3,57.4,162.7c0,82.3-7.7,101.5-42.1,120.6C6295,1262.4,6019.3,1270,5938.9,1241.3z M2761,173.1c49.8-49.8,49.8-155.1,0-201c-28.7-26.8-86.1-38.3-216.3-49.8c-304.4-23-522.6-101.5-758.1-268c-120.6-86.1-176.1-93.8-241.2-26.8c-88.1,86.1-63.2,155.1,93.8,266.1c285.2,202.9,606.9,310.1,945.7,315.9C2699.7,211.4,2728.5,205.6,2761,173.1z M4196.8-1310.6v-488.2h-413.5h-413.5l-55.5,55.5l-55.5,55.5v377.1v377.1l55.5,55.5l55.5,55.5h413.5h413.5V-1310.6z M5355-870.3c47.9-45.9,47.9-47.9,47.9-438.4v-390.5l-59.3-49.8l-59.4-49.8h-400.1H4484v488.2v488.2h411.6C5309.1-822.4,5309.1-822.4,5355-870.3z M6086.3-3393.4c143.6-74.7,224-206.8,224-367.6c1.9-354.2-405.9-543.7-670-310.1c-95.7,82.3-141.7,183.8-141.7,304.4c1.9,180,105.3,329.3,271.9,392.5C5847-3345.6,6009.7-3355.1,6086.3-3393.4z"/></g></g>
</svg>